<?xml version="1.0" standalone="no"?>
<!DOCTYPE svg PUBLIC "-//W3C//DTD SVG 1.1//EN" "http://www.w3.org/Graphics/SVG/1.1/DTD/svg11.dtd">

<svg viewBox="0 0 250 111" fill="none" xmlns="http://www.w3.org/2000/svg" class="logo__desktop"><path d="M114.689 49.4653C123.403 49.4653 127.33 47.267 128.545 42.0148H139.688V92.6768H124.619V59.2577H114.691V49.4653H114.689Z" fill="#28294E"></path> <path d="M162.182 71.4623H148.612L151.612 42.0148H185.323V53.3665H162.468L161.684 60.5328C163.256 59.3985 166.469 57.9067 171.395 57.9067C181.75 57.9067 188.892 65.073 188.892 75.6451C188.892 85.5782 181.178 93.5269 168.254 93.5269C154.683 93.5269 147.328 86.5745 146.47 76.7821H161.61C161.896 80.1879 164.253 82.814 168.038 82.814C172.18 82.814 174.537 79.7629 174.537 75.8616C174.537 71.7465 172.395 68.625 168.109 68.625C165.112 68.6223 163.112 70.0409 162.182 71.4623Z" fill="#28294E"></path> <path d="M116.583 103.734C117.948 103.734 118.487 103.365 118.675 102.542H119.695V110.507H118.218V104.711H116.583V103.734Z" fill="#28294E"></path> <path d="M122.708 107.004H121.376L121.834 102.564H126.627V103.731H122.896L122.684 105.799C122.986 105.466 123.613 105.155 124.362 105.155C126.019 105.155 127.085 106.335 127.085 107.892C127.085 109.427 125.976 110.64 124.128 110.64C122.324 110.64 121.171 109.627 121.049 108.092H122.526C122.594 108.926 123.185 109.527 124.128 109.527C125.158 109.527 125.662 108.772 125.662 107.903C125.662 107.023 125.169 106.268 124.128 106.268C123.425 106.27 122.954 106.614 122.708 107.004Z" fill="#28294E"></path> <path d="M131.306 102.431C133.388 102.431 134.698 104.156 134.698 106.536C134.698 108.915 133.388 110.64 131.306 110.64C129.224 110.64 127.902 108.915 127.902 106.536C127.902 104.156 129.224 102.431 131.306 102.431ZM131.306 109.484C132.57 109.484 133.197 108.339 133.197 106.536C133.197 104.732 132.57 103.587 131.306 103.587C130.03 103.587 129.401 104.732 129.401 106.536C129.404 108.339 130.03 109.484 131.306 109.484Z" fill="#28294E"></path> <path d="M140.385 110.507V107.248L137.295 102.564H138.952L141.17 105.956H141.192L143.353 102.564H144.977L141.876 107.248V110.507H140.385Z" fill="#28294E"></path> <path d="M147.315 110.643C145.658 110.643 144.437 109.541 144.437 107.694C144.437 105.848 145.68 104.724 147.282 104.724C149.062 104.724 149.915 106.07 149.915 107.572V108.027H145.827C145.917 109.029 146.432 109.595 147.318 109.595C147.966 109.595 148.37 109.294 148.56 108.75H149.882C149.634 109.963 148.615 110.643 147.315 110.643ZM145.871 107.104H148.547C148.547 106.403 148.143 105.78 147.282 105.78C146.533 105.78 146.029 106.235 145.871 107.104Z" fill="#28294E"></path> <path d="M154.593 109.619C154.324 110.264 153.607 110.632 152.702 110.632C151.593 110.632 150.786 110.02 150.786 108.997C150.786 107.862 151.683 107.394 152.836 107.261L154.539 107.072V106.804C154.539 106.113 154.114 105.78 153.462 105.78C152.836 105.78 152.454 106.124 152.411 106.649H151.034C151.157 105.436 152.111 104.724 153.509 104.724C155.054 104.724 155.939 105.447 155.939 106.917V109.097C155.939 109.619 155.961 110.052 156.051 110.51H154.675C154.615 110.196 154.593 109.895 154.593 109.619ZM154.539 108.317V107.973L153.274 108.117C152.669 108.195 152.212 108.328 152.212 108.918C152.212 109.362 152.525 109.641 153.097 109.641C153.833 109.641 154.539 109.208 154.539 108.317Z" fill="#28294E"></path> <path d="M161.022 106.113C160.853 106.081 160.651 106.07 160.474 106.07C159.599 106.07 158.872 106.671 158.872 107.895V110.51H157.438V104.857H158.85V106.124C159.12 105.244 159.779 104.757 160.596 104.757C160.741 104.757 160.899 104.768 161.022 104.8V106.113V106.113Z" fill="#28294E"></path> <path d="M162.834 108.796C162.902 109.386 163.493 109.652 164.109 109.652C164.714 109.652 165.185 109.408 165.185 108.951C165.185 108.593 164.94 108.428 164.311 108.317L163.302 108.138C162.362 107.97 161.667 107.537 161.667 106.525C161.667 105.455 162.654 104.722 163.975 104.722C165.452 104.722 166.294 105.366 166.417 106.457H165.106C165.049 106.013 164.613 105.723 163.986 105.723C163.381 105.723 162.989 105.991 162.989 106.379C162.989 106.768 163.281 106.912 163.864 107.012L164.973 107.202C165.97 107.369 166.529 107.914 166.529 108.848C166.529 109.928 165.488 110.64 164.133 110.64C162.656 110.64 161.591 110.028 161.468 108.793H162.834V108.796Z" fill="#28294E"></path> <path d="M172.374 110.643C170.695 110.643 169.496 109.519 169.496 107.683C169.496 105.859 170.695 104.724 172.374 104.724C174.052 104.724 175.251 105.859 175.251 107.683C175.251 109.519 174.052 110.643 172.374 110.643ZM172.374 109.584C173.292 109.584 173.818 108.872 173.818 107.681C173.818 106.5 173.292 105.778 172.374 105.778C171.445 105.778 170.93 106.5 170.93 107.681C170.93 108.872 171.445 109.584 172.374 109.584Z" fill="#28294E"></path> <path d="M175.788 105.88V104.857H176.573V104.056C176.573 102.886 177.279 102.288 178.431 102.288C178.734 102.288 179.025 102.299 179.26 102.345V103.425C179.091 103.403 178.914 103.392 178.712 103.392C178.298 103.392 178.006 103.582 178.006 104.126V104.86H179.159V105.883H178.006V110.513H176.573V105.883H175.788V105.88Z" fill="#28294E"></path> <path d="M183.669 107.583V110.51H182.214V102.567H185.516C187.407 102.567 188.506 103.422 188.506 105.082C188.506 106.739 187.407 107.586 185.527 107.586H183.669V107.583ZM185.394 106.425C186.492 106.425 187.04 105.981 187.04 105.079C187.04 104.167 186.492 103.734 185.394 103.734H183.669V106.425H185.394V106.425Z" fill="#28294E"></path> <path d="M193.288 110.507V109.562C193.018 110.207 192.37 110.643 191.519 110.643C190.244 110.643 189.492 109.863 189.492 108.496V104.857H190.936V108.184C190.936 109.086 191.296 109.541 192.034 109.541C192.729 109.541 193.255 109.062 193.255 107.927V104.857H194.699V110.51H193.288V110.507Z" fill="#28294E"></path> <path d="M197.664 110.507H196.253V102.318H197.686V105.778C197.956 105.209 198.604 104.722 199.49 104.722C200.981 104.722 202 105.935 202 107.681C202 109.438 200.981 110.64 199.49 110.64C198.629 110.64 197.945 110.172 197.664 109.606V110.507ZM197.653 107.784C197.653 108.886 198.179 109.598 199.087 109.598C200.016 109.598 200.553 108.853 200.553 107.684C200.553 106.528 200.016 105.769 199.087 105.769C198.179 105.769 197.653 106.481 197.653 107.583V107.784Z" fill="#28294E"></path> <path d="M203.161 110.507V102.318H204.594V110.507H203.161Z" fill="#28294E"></path> <path d="M206.106 102.51H207.629V103.901H206.106V102.51ZM206.15 104.857H207.583V110.51H206.15V104.857Z" fill="#28294E"></path> <path d="M211.602 104.724C213.014 104.724 213.921 105.537 214.077 106.793H212.722C212.611 106.181 212.24 105.791 211.592 105.791C210.684 105.791 210.18 106.536 210.18 107.683C210.18 108.839 210.684 109.576 211.592 109.576C212.24 109.576 212.611 109.175 212.722 108.574H214.077C213.921 109.841 213.014 110.643 211.602 110.643C209.935 110.643 208.747 109.519 208.747 107.683C208.747 105.859 209.935 104.724 211.602 104.724Z" fill="#28294E"></path> <path d="M219.764 103.734H216.897V102.567H224.121V103.734H221.243V110.51H219.766V103.734H219.764Z" fill="#28294E"></path> <path d="M227.838 106.113C227.669 106.081 227.467 106.07 227.29 106.07C226.415 106.07 225.688 106.671 225.688 107.895V110.51H224.255V104.857H225.666V106.124C225.936 105.244 226.595 104.757 227.413 104.757C227.557 104.757 227.715 104.768 227.838 104.8V106.113V106.113Z" fill="#28294E"></path> <path d="M232.484 110.507V109.562C232.214 110.207 231.566 110.643 230.715 110.643C229.44 110.643 228.688 109.863 228.688 108.496V104.857H230.132V108.184C230.132 109.086 230.492 109.541 231.231 109.541C231.925 109.541 232.451 109.062 232.451 107.927V104.857H233.896V110.51H232.484V110.507Z" fill="#28294E"></path> <path d="M236.356 108.796C236.424 109.386 237.016 109.652 237.631 109.652C238.236 109.652 238.708 109.408 238.708 108.951C238.708 108.593 238.463 108.428 237.833 108.317L236.825 108.138C235.885 107.97 235.19 107.537 235.19 106.525C235.19 105.455 236.176 104.722 237.498 104.722C238.975 104.722 239.817 105.366 239.94 106.457H238.629C238.572 106.013 238.136 105.723 237.509 105.723C236.904 105.723 236.512 105.991 236.512 106.379C236.512 106.768 236.803 106.912 237.386 107.012L238.495 107.202C239.493 107.369 240.051 107.914 240.051 108.848C240.051 109.928 239.01 110.64 237.656 110.64C236.179 110.64 235.114 110.028 234.991 108.793H236.356V108.796Z" fill="#28294E"></path> <path d="M244.261 110.431C243.814 110.564 243.477 110.599 243.13 110.599C241.942 110.599 241.362 110.098 241.362 108.964V105.883H240.577V104.86H241.362V103.447H242.784V104.86H244.139V105.883H242.773V108.742C242.773 109.275 243.032 109.454 243.512 109.454C243.724 109.454 243.948 109.432 244.261 109.343V110.431V110.431Z" fill="#28294E"></path> <path d="M217.864 74.9791C216.254 75.2146 209.651 75.9185 205.719 72.3855C201.218 68.3407 201.923 60.2702 201.923 60.2702C201.923 60.2702 209.932 58.7596 214.431 62.807C216.682 64.8294 217.63 67.8561 218.017 70.3766L218.205 64.7996H218.968L219.044 67.1062C219.369 65.2003 220.175 62.566 222.197 61.0202C225.62 58.4076 231.217 59.9345 231.217 59.9345C231.217 59.9345 231.266 65.6957 227.841 68.311C224.887 70.5689 220.317 69.7404 219.123 69.4697L219.69 86.3444L233.206 74.0884L233.748 74.6271L229.094 79.4597C230.729 78.4282 233.181 77.2938 235.642 77.7216C236.683 77.903 237.623 78.347 238.457 78.9155C239.811 75.4826 240.528 71.576 240.528 67.3445C240.528 52.1591 231.315 41.162 216.461 41.162C201.604 41.162 192.391 52.1591 192.391 67.3445C192.391 82.5298 201.604 93.5269 216.461 93.5269C216.723 93.5269 216.984 93.5215 217.243 93.5161L217.864 74.9791Z" fill="#28294E"></path> <path d="M227.353 81.2736L219.786 89.1356L219.927 93.3211C225.497 92.6335 230.116 90.2727 233.56 86.6774C230.255 85.8218 228.009 82.3917 227.353 81.2736Z" fill="#28294E"></path> <path d="M234.89 38.2462C235.528 38.7281 235.912 38.7444 236.293 38.4276L236.77 38.7877L233.928 42.5157L233.236 41.9958L235.304 39.2831L234.539 38.7065L234.89 38.2462Z" fill="#28294E"></path> <path d="M239.394 42.8866C239.04 43.2466 238.558 43.2954 238.127 43.1329C238.397 43.5228 238.422 44.1698 238.035 44.5597C237.454 45.1472 236.552 45.0172 235.754 44.2375C234.955 43.4605 234.808 42.5644 235.389 41.9769C235.776 41.5843 236.427 41.5979 236.825 41.8578C236.653 41.4354 236.697 40.9535 237.051 40.5962C237.639 40.0006 238.487 40.1495 239.155 40.7992C239.819 41.4517 239.986 42.2909 239.394 42.8866ZM237.462 43.9559C237.784 43.6311 237.735 43.16 237.269 42.7052C236.806 42.253 236.329 42.2097 236.007 42.5373C235.686 42.8622 235.735 43.3333 236.201 43.7881C236.664 44.2402 237.138 44.2835 237.462 43.9559ZM238.833 42.364C239.174 42.0202 239.062 41.5816 238.716 41.2432C238.364 40.8994 237.926 40.8019 237.585 41.1485C237.25 41.4896 237.351 41.9255 237.702 42.2693C238.048 42.6077 238.495 42.7052 238.833 42.364Z" fill="#28294E"></path> <path d="M240.365 43.1329L240.912 42.7159L242.997 45.4233L242.468 45.8239C240.746 45.7671 239.599 46.203 238.381 47.1018L237.839 46.3952C239.108 45.4557 240.512 45.1282 241.91 45.1363L240.365 43.1329Z" fill="#28294E"></path> <path d="M240.179 49.9716C239.648 49.0484 239.82 48.1658 240.553 47.6595L240.967 48.3797C240.558 48.6558 240.468 49.1459 240.757 49.644C241.046 50.1421 241.468 50.2992 241.869 50.0718C242.28 49.8389 242.299 49.4139 242.035 48.9536L241.792 48.534L242.351 48.2172L242.585 48.626C242.803 49.0051 243.152 49.2135 243.585 48.9672C243.94 48.7668 244.081 48.3689 243.822 47.9221C243.547 47.4457 243.068 47.3509 242.643 47.5567L242.245 46.8663C242.978 46.5089 243.872 46.6795 244.403 47.6027C244.929 48.515 244.64 49.3029 244.013 49.6602C243.534 49.9337 243.01 49.8091 242.7 49.4437C242.901 49.977 242.719 50.5158 242.217 50.8027C241.583 51.1574 240.732 50.9273 240.179 49.9716Z" fill="#28294E"></path> <path d="M243.457 51.1547L245.343 56.2363L244.757 56.4502L242.871 51.3685L243.457 51.1547Z" fill="#28294E"></path> <path d="M245.392 59.0276C244.937 58.5295 244.553 58.183 244.223 58.2371L244.733 60.6412L244.057 60.782L243.351 57.452L243.678 57.3843C244.572 57.1975 245.291 57.8608 245.847 58.4591C246.368 59.0114 246.719 59.3633 247.169 59.2713C247.561 59.1901 247.839 58.8896 247.727 58.3535C247.616 57.8283 247.147 57.609 246.662 57.6767L246.49 56.8645C247.351 56.7427 248.172 57.1867 248.39 58.2209C248.597 59.1982 248.103 59.9102 247.332 60.0727C246.496 60.2432 245.975 59.6855 245.392 59.0276Z" fill="#28294E"></path> <path d="M249.071 62.5958C249.196 63.8033 248.261 64.6669 246.861 64.8104C245.463 64.9539 244.37 64.296 244.245 63.0886C244.12 61.8811 245.054 61.0121 246.452 60.8686C247.855 60.7251 248.948 61.3884 249.071 62.5958ZM244.926 63.0182C245.002 63.7519 245.714 64.047 246.771 63.9387C247.831 63.8304 248.466 63.3972 248.39 62.6635C248.313 61.9244 247.602 61.6266 246.542 61.7349C245.487 61.8459 244.85 62.2764 244.926 63.0182Z" fill="#28294E"></path> <path d="M246.215 67.3147C245.866 66.738 245.558 66.3238 245.223 66.313L245.253 68.7685L244.564 68.7766L244.523 65.3735L244.858 65.3708C245.771 65.36 246.346 66.1505 246.776 66.8436C247.18 67.4852 247.452 67.8995 247.913 67.8941C248.313 67.8886 248.646 67.6504 248.64 67.1008C248.635 66.5648 248.215 66.2561 247.73 66.2291L247.719 65.4006C248.588 65.4493 249.305 66.0423 249.319 67.1008C249.332 68.0998 248.708 68.7035 247.918 68.7117C247.06 68.7225 246.656 68.0754 246.215 67.3147Z" fill="#28294E"></path> <path d="M244.321 70.8288C244.408 69.7675 245.054 69.1394 245.945 69.134L245.877 69.9598C245.384 69.9598 245.03 70.309 244.983 70.883C244.937 71.4569 245.196 71.8251 245.654 71.863C246.125 71.9009 246.384 71.5625 246.428 71.0346L246.468 70.5527L247.112 70.6041L247.073 71.0725C247.038 71.5083 247.204 71.8765 247.703 71.9172C248.109 71.9496 248.452 71.7033 248.496 71.1889C248.542 70.642 248.202 70.2928 247.733 70.2224L247.798 69.4291C248.605 69.5483 249.245 70.1899 249.158 71.2512C249.071 72.2989 248.384 72.7862 247.665 72.7266C247.114 72.6806 246.752 72.2853 246.705 71.8089C246.567 72.3612 246.111 72.7023 245.534 72.6563C244.801 72.5994 244.228 71.9307 244.321 70.8288Z" fill="#28294E"></path> <path d="M37.9671 37.9295L37.7681 32.0249L45.8531 23.6268C46.5861 24.8775 49.183 28.8465 52.998 29.5125C57.5351 30.303 62.0749 26.1094 62.0749 26.1094C62.0749 26.1094 59.2545 20.6271 54.7147 19.8365C52.0851 19.379 49.4637 20.5919 47.717 21.6937L52.6901 16.5282L52.1124 15.9542L37.67 29.0495L37.0651 11.0215C38.3404 11.3085 43.2235 12.1938 46.379 9.78154C50.0387 6.98759 49.9869 0.833856 49.9869 0.833856C49.9869 0.833856 44.0056 -0.798656 40.3514 1.99259C38.1932 3.64134 37.3294 6.45966 36.9833 8.49556L36.9016 6.03191H36.0868L35.8879 11.9907C35.4737 9.29693 34.46 6.06169 32.0566 3.90125C27.2443 -0.422339 18.6879 1.19122 18.6879 1.19122C18.6879 1.19122 17.9303 9.81132 22.7426 14.1322C26.9445 17.9062 33.9968 17.1536 35.7162 16.9018L35.0105 37.9268H0V110.274H72.8195V37.9295H37.9671Z" fill="#DC291E"></path> <path d="M42.6649 92.7634V82.5785H38.948V83.8374H40.2152C40.2152 85.0936 40.2152 91.4585 40.2152 91.4585C39.2669 92.0866 38.5093 92.3736 37.5392 92.3736C37.4602 92.3736 37.2858 92.3736 37.2858 92.3736C36.2421 92.3736 35.3947 91.5316 35.3947 90.4947V87.9471V82.5812H31.6642V83.8401H32.9313C32.9313 85.0963 32.9749 89.8585 32.9749 89.8585C32.9749 93.5648 34.6126 94.2389 36.7217 94.2389C38.2504 94.2389 39.3704 93.6541 40.2942 93.0937C40.2942 93.2995 40.2969 93.8112 40.2969 94.0223H43.9347V92.7634H42.6649V92.7634Z" fill="white"></path> <path d="M47.8996 84.9881C47.8996 84.36 48.0277 84.0216 48.0277 84.0216C48.4582 83.7292 49.104 83.5505 49.9433 83.5505C50.502 83.5505 50.9979 83.6182 51.6001 83.8429C51.6355 84.0514 51.8999 85.2778 51.9435 85.4916H53.2133L53.4286 83.0551C52.2868 82.4946 51.2976 82.1129 49.8534 82.1129C47.2919 82.1129 45.5916 83.2825 45.5916 85.6162C45.5916 89.5012 51.4475 88.2883 51.4475 91.3205C51.4475 91.9486 51.3194 92.3303 51.3194 92.3303C50.9107 92.666 50.1995 92.8014 49.273 92.8014C48.6926 92.8014 48.0985 92.731 47.5726 92.5063C47.529 92.2789 47.2402 90.9063 47.2293 90.8576H45.9567L45.7414 93.2941C46.8832 93.8546 47.8724 94.2363 49.3575 94.2363C51.9625 94.2363 53.7501 93.0694 53.7501 90.733C53.7556 86.4934 47.8996 87.5952 47.8996 84.9881Z" fill="white"></path> <path d="M10.5702 77.5348V78.7937V80.1149H11.8973V78.7937H15.2054V92.731H13.941V93.9899H18.9931V92.7255H17.7232V78.7937H21.0314V80.1149H22.3584V78.7937V78.7693V77.5348H10.5702Z" fill="white"></path> <path d="M29.8629 82.2563C28.4405 82.2563 27.0181 82.657 25.9008 83.5532V82.6516H22.1158V83.9132H23.383V92.731H22.1158V93.9899H27.1679V92.7255H25.9008V85.1532C26.7483 84.4926 27.8328 84.1758 28.6749 84.1975V85.4591H29.9447V83.2987L29.8629 82.2563Z" fill="white"></path> <path d="M61.8814 92.2004C61.2356 92.5604 60.8268 92.7608 60.2246 92.7608C59.4916 92.7608 59.0611 92.3114 59.0611 90.7168V83.8889H62.0749V82.3376H59.0611V78.8804H57.3171L56.8429 82.3376H55.1453V83.5965C55.1507 83.5965 56.6931 83.8862 56.6931 83.8862V90.9848C56.6931 93.7923 58.3934 94.2417 59.9439 94.2417C61.0203 94.2417 61.9032 93.8139 62.3773 93.5243L61.8814 92.2004Z" fill="white"></path> <path d="M29.536 71.7737V61.5887H25.8164V62.8476H27.0836C27.0836 64.1038 27.0836 70.4687 27.0836 70.4687C26.1353 71.0968 25.3777 71.3838 24.4076 71.3838C24.3286 71.3838 24.1542 71.3838 24.1542 71.3838C23.1105 71.3838 22.2631 70.5418 22.2631 69.5049V66.9574V61.5915H18.5326V62.8504H19.7997C19.7997 64.1065 19.8433 68.8687 19.8433 68.8687C19.8433 72.575 21.481 73.2492 23.5901 73.2492C25.1189 73.2492 26.2388 72.6644 27.1626 72.104C27.1626 72.3097 27.1653 72.8214 27.1653 73.0326H30.8031V71.7737H29.536Z" fill="white"></path> <path d="M47.935 55.795H44.15V57.0539H45.4171V71.7709H44.1527V73.0298L49.2021 73.0325V71.7682H47.935V55.795Z" fill="white"></path> <path d="M55.039 61.5833H51.254V62.8422H52.5211L52.5239 71.7655H51.2595V73.0244L56.3089 73.0271V71.7628H55.0417L55.039 61.5833Z" fill="white"></path> <path d="M55.0417 57.2543H52.5129V59.7667H55.0417V57.2543Z" fill="white"></path> <path d="M66.8872 71.9091L66.2033 70.6691C65.4757 71.1456 64.6582 71.6221 63.7835 71.7439C63.4674 71.7872 63.1704 71.7493 62.857 71.7141C61.3119 71.4921 60.241 70.1087 60.241 68.1892V66.2778C60.241 66.1425 60.2465 66.0044 60.2601 65.869C60.3037 65.3736 60.4318 64.8078 60.6443 64.3583C60.8378 63.9522 61.1049 63.5759 61.4509 63.2835C61.797 62.9912 62.1894 62.8179 62.6363 62.7502C63.0696 62.6825 63.5928 62.7556 64.0124 62.8883C64.5247 63.0507 64.9171 63.2456 65.3585 63.5516V64.8159H66.6256C66.6256 64.8159 66.6257 62.7935 66.6229 62.7935C65.8708 62.1573 65.0097 61.6077 64.0396 61.3776C63.4102 61.2287 62.8052 61.2124 62.1621 61.2612C61.8924 61.2801 61.4891 61.3424 61.1893 61.4182C60.6089 61.5644 60.0585 61.8216 59.5925 62.1979C59.0502 62.6365 58.6497 63.2186 58.3799 63.8548C58.0093 64.7347 57.873 65.7039 57.8458 66.6514C57.8431 66.7679 57.8403 66.887 57.8403 67.0034C57.8403 69.1909 58.4725 70.9019 59.5952 71.9686C59.7505 72.1365 59.9277 72.2962 60.1375 72.4478C60.8623 72.9812 61.7479 73.2004 62.639 73.2492C63.541 73.2979 64.413 73.1734 65.2495 72.8241C65.8245 72.5778 66.3668 72.2556 66.8872 71.9091Z" fill="white"></path> <path d="M42.7276 65.609C42.6758 65.2165 42.5995 64.8293 42.4878 64.4503C42.3924 64.1254 42.2698 63.8087 42.1144 63.5082C41.9782 63.2429 41.8174 62.9911 41.6294 62.7609C41.4577 62.5498 41.2643 62.3576 41.0544 62.187C40.8555 62.0273 40.6375 61.8865 40.4113 61.7701C40.1906 61.6564 39.959 61.5616 39.7219 61.4885C39.4876 61.4154 39.2505 61.3613 39.008 61.3207C38.73 61.2746 38.4466 61.2449 38.1632 61.2584C37.6291 61.2882 37.0978 61.3965 36.6018 61.5941C36.0487 61.8161 35.817 61.9515 35.3374 62.2493C35.3374 60.0942 35.3374 55.7977 35.3374 55.7977H31.5552V57.0566H32.8196V72.2095L32.9558 72.2853C34.2692 73.0731 36.5719 73.2518 37.8008 73.2518C38.9153 73.2518 39.8445 72.9459 40.5203 72.4477C40.7274 72.2934 40.9046 72.1337 41.0626 71.9685C42.1826 70.9018 42.8175 69.1935 42.8175 67.0033C42.8148 66.5349 42.7902 66.0693 42.7276 65.609ZM40.4141 68.1891C40.4141 70.1086 39.2478 71.6545 37.7981 71.6545C37.1959 71.6761 36.2394 71.6464 35.3347 71.4893V63.6733C35.4982 63.4865 35.7925 63.2212 36.2585 63.029C36.7653 62.8422 37.294 62.7366 37.8717 62.723C38.3649 62.7474 38.8336 62.9667 39.2042 63.2808C39.5502 63.5731 39.8173 63.9495 40.0108 64.3556C40.226 64.805 40.3514 65.3708 40.395 65.8662C40.4059 66.0016 40.4141 66.137 40.4141 66.275V68.1891V68.1891Z" fill="white"></path> <path d="M11.9735 56.5449H6.05762V57.8038H7.32473V71.7573H6.06034V73.0162L11.1097 73.0189V71.7546H9.84261V57.8038H11.8863C11.9926 57.8065 12.0934 57.8309 12.1943 57.8498C12.227 57.8553 12.2624 57.858 12.2978 57.8634C12.3932 57.885 12.4858 57.9148 12.5785 57.95C13.5894 58.2911 14.3197 59.2306 14.3197 60.3487V60.6194V60.8875V61.7728C14.3197 63.1778 13.1725 64.3149 11.761 64.3149H10.6383V65.5576H11.7555C14.5977 65.5576 16.8567 64.0307 16.8567 60.8875C16.8594 57.5168 14.4914 56.5449 11.9735 56.5449Z" fill="white"></path> <path d="M94.9653 36.8168H94.5266V111.057H94.9653V36.8168Z" fill="#1F2348"></path></svg>